#!OML:ASF H:\Terrain\Patient Classification 1\Animal2\Wednesday\Animal2.ASF
:FULLY-SPECIFIED
:DEGREES
3414
root 29.0821 16.8448 -22.5804 -4.74899 -77.2905 11.2703
lowerback 11.2205 -6.22175 -2.48188
upperback 2.05339 -8.5119 2.43002
thorax -3.35051 -4.23044 5.05189
lowerneck -2.33481 -11.9517 9.07438
upperneck -10.359 -17.21 -7.72274
head -4.17924 -8.74524 -3.05813
rclavicle -4.40308e-014 2.10712e-014
rhumerus -23.3895 15.1358 -92.4054
rradius 135.252
rwrist 5.50538
rhand -31.4517 10.7318
rfingers 7.12502
rthumb -4.71931 -19.1957
lclavicle -4.40308e-014 2.10712e-014
lhumerus -28.5897 -13.1351 88.2143
lradius 140.872
lwrist 41.5149
lhand -20.2404 39.2107
lfingers 7.12502
lthumb 6.1077 -290.897
rfemur -32.9093 17.2563 13.5417
rtibia 50.1958
rfoot -28.8955 0.439528
rtoes -17.7288
lfemur -18.0057 -5.94855 -0.167872
ltibia 32.1759
lfoot -14.3321 -10.1935
ltoes -18.1908
3415
root 29.0865 16.841 -22.5423 -4.07287 -77.8633 10.5452
lowerback 11.22 -6.26012 -2.30672
upperback 2.03409 -8.54047 2.50965
thorax -3.3808 -4.24559 5.04444
lowerneck -2.16938 -11.8291 9.00889
upperneck -10.6205 -17.0548 -7.68629
head -4.2634 -8.66503 -3.0306
rclavicle -1.36167e-014 2.14687e-014
rhumerus -23.5398 15.3836 -92.5208
rradius 135.467
rwrist 5.59794
rhand -31.5851 10.7839
rfingers 7.12502
rthumb -4.84813 -19.1407
lclavicle -1.36167e-014 2.14687e-014
lhumerus -28.9495 -12.7421 88.2179
lradius 141.496
lwrist 41.5919
lhand -20.1321 39.6685
lfingers 7.12502
lthumb 6.21229 -290.443
rfemur -33.0046 17.5897 13.6596
rtibia 50.2473
rfoot -28.9994 0.538065
rtoes -18.0238
lfemur -17.7183 -5.72879 0.0282958
ltibia 32.1636
lfoot -15.0732 -9.92747
ltoes -22.1056
3416
root 29.0876 16.8401 -22.5024 -4.03467 -78.3675 10.5613
lowerback 10.9658 -6.34516 -2.18016
upperback 2.09996 -8.63834 2.50779
thorax -3.18222 -4.30322 4.94517
lowerneck -2.16826 -11.675 8.94788
upperneck -10.88 -16.8693 -7.60727
head -4.31465 -8.578 -3.00521
rclavicle -3.97569e-014 -2.78299e-015
rhumerus -23.4586 15.7286 -92.6994
rradius 135.635
rwrist 5.70975
rhand -31.5504 10.9722
rfingers 7.12502
rthumb -4.81464 -18.9531
lclavicle -3.97569e-014 -2.78299e-015
lhumerus -28.9895 -12.1313 88.1409
lradius 142.025
lwrist 41.5684
lhand -19.6451 39.8682
lfingers 7.12502
lthumb 6.68245 -290.257
rfemur -33.1833 17.8578 13.551
rtibia 50.286
rfoot -29.0261 0.904473
rtoes -17.4484
lfemur -17.5542 -5.65284 -0.0339026
ltibia 32.0914
lfoot -15.4486 -9.26092
ltoes -24.017
3417
root 29.089 16.8367 -22.4619 -5.14431 -78.8415 11.6963
lowerback 10.5216 -6.28693 -2.46425
upperback 2.35225 -8.59502 2.57024
thorax -2.62818 -4.30467 5.07658
lowerneck -2.36012 -11.629 8.7851
upperneck -11.1825 -16.8657 -7.55172
head -4.35702 -8.5859 -2.97107
rclavicle 1.7503e-013 -4.77083e-014
rhumerus -23.0365 15.9043 -92.4317
rradius 135.875
rwrist 5.61908
rhand -31.611 11.2198
rfingers 7.12502
rthumb -4.87314 -18.7042
lclavicle 1.7503e-013 -4.77083e-014
lhumerus -28.6978 -11.7378 88.3669
lradius 142.374
lwrist 41.38
lhand -19.0775 39.7999
lfingers 7.12502
lthumb 7.23035 -290.344
rfemur -33.3221 18.1204 13.2012
rtibia 50.3337
rfoot -29.0943 1.29665
rtoes -16.8467
lfemur -17.301 -5.70244 -0.381573
ltibia 31.9793
lfoot -15.9168 -8.55342
ltoes -24.9065
3418
root 29.0929 16.8258 -22.4203 -6.67379 -79.266 13.264
lowerback 10.1681 -6.08019 -3.06085
upperback 2.53809 -8.38176 2.80381
thorax -2.14026 -4.22131 5.55793
lowerneck -2.32528 -11.6842 8.49642
upperneck -11.7446 -17.0163 -7.51521
head -4.51988 -8.65914 -2.89018
rclavicle 4.05521e-014 -3.97569e-016
rhumerus -22.685 15.8116 -91.6137
rradius 136.205
rwrist 5.47926
rhand -31.7364 11.3263
rfingers 7.12502
rthumb -4.99425 -18.5948
lclavicle 4.05521e-014 -3.97569e-016
lhumerus -28.589 -12.0333 89.0885
lradius 142.704
lwrist 41.3825
lhand -19.2858 39.6023
lfingers 7.12502
lthumb 7.02927 -290.534
rfemur -33.4735 18.3346 12.7659
rtibia 50.3864
rfoot -29.2006 1.45683
rtoes -16.9769
lfemur -17.0373 -5.90684 -0.784335
ltibia 31.9024
lfoot -16.3375 -8.43829
ltoes -23.0542
3419
root 29.0961 16.8149 -22.3777 -6.4561 -79.7039 13.0664
lowerback 10.9476 -6.10536 -2.36122
upperback 1.79079 -8.33421 2.47774
thorax -3.50361 -4.13275 5.00189
lowerneck -1.74794 -11.7931 8.74754
upperneck -11.3499 -17.0683 -7.7038
head -4.53501 -8.65596 -2.94739
rclavicle 6.15239e-014 -1.78906e-014
rhumerus -24.1559 15.4718 -92.3657
rradius 136.56
rwrist 5.8068
rhand -31.6088 11.4683
rfingers 7.12502
rthumb -4.87103 -18.4557
lclavicle 6.15239e-014 -1.78906e-014
lhumerus -30.3136 -12.6881 88.9965
lradius 143.41
lwrist 41.9133
lhand -20.09 39.3084
lfingers 7.12502
lthumb 6.25296 -290.804
rfemur -33.6097 18.5618 12.6935
rtibia 50.4187
rfoot -29.3077 1.45827
rtoes -16.9973
lfemur -16.8337 -5.83024 -0.839759
ltibia 31.9072
lfoot -17.0448 -7.6294
ltoes -26.2071
3420
root 29.0972 16.8121 -22.3345 -5.67704 -80.1496 12.2202
lowerback 10.7077 -6.34384 -2.43388
upperback 2.09002 -8.66171 2.66333
thorax -2.98696 -4.32152 5.21068
lowerneck -2.03248 -11.4413 9.17503
upperneck -11.7188 -16.7158 -8.06318
head -4.63581 -8.50393 -3.14735
rclavicle 5.17834e-014 -3.97569e-015
rhumerus -23.5469 16.2525 -92.3366
rradius 136.642
rwrist 5.96463
rhand -31.5806 11.5939
rfingers 7.12502
rthumb -4.84379 -18.3307
lclavicle 5.17834e-014 -3.97569e-015
lhumerus -30.0554 -11.86 88.5536
lradius 143.907
lwrist 42.1241
lhand -20.5313 39.0786
lfingers 7.12502
lthumb 5.82693 -291.022
rfemur -33.636 18.8267 12.7799
rtibia 50.4372
rfoot -29.3445 1.60289
rtoes -16.8343
lfemur -16.5526 -5.28187 -0.846918
ltibia 31.9711
lfoot -17.6827 -7.02597
ltoes -29.0888
